<?xml version="1.0" standalone="no"?>
<!DOCTYPE svg PUBLIC "-//W3C//DTD SVG 20010904//EN"
 "http://www.w3.org/TR/2001/REC-SVG-20010904/DTD/svg10.dtd">
<svg version="1.0" xmlns="http://www.w3.org/2000/svg"
 width="500.000000pt" height="500.000000pt" viewBox="0 0 500.000000 500.000000"
 preserveAspectRatio="xMidYMid meet">
<metadata>
Created by potrace 1.14, written by Peter Selinger 2001-2017
</metadata>
<g transform="translate(0.000000,500.000000) scale(0.100000,-0.100000)"
fill="#000000" stroke="none">
<path d="M1850 4215 l0 -175 655 0 655 0 0 175 0 175 -655 0 -655 0 0 -175z"/>
<path d="M590 3785 l0 -175 1720 0 1720 0 0 175 0 175 -1720 0 -1720 0 0 -175z"/>
<path d="M590 3355 l0 -175 1915 0 1915 0 0 175 0 175 -1915 0 -1915 0 0 -175z"/>
<path d="M590 2925 l0 -175 571 0 570 0 44 30 c66 45 211 116 300 145 274 92
593 91 865 -2 85 -29 210 -89 288 -139 l52 -34 470 0 470 0 0 175 0 175 -1815
0 -1815 0 0 -175z"/>
<path d="M2265 2880 c-515 -105 -909 -509 -999 -1025 -16 -88 -22 -347 -10
-379 5 -14 29 -16 160 -16 l154 0 -6 48 c-2 26 -7 64 -9 84 -7 50 12 219 31
293 45 170 184 385 318 493 182 148 376 216 611 214 190 -1 357 -52 517 -158
198 -132 354 -363 403 -599 18 -83 24 -284 11 -342 l-8 -33 155 0 c132 0 156
2 161 16 12 32 6 293 -9 380 -78 446 -407 834 -829 979 -194 66 -457 84 -651
45z"/>
<path d="M590 2495 l0 -175 373 0 372 0 50 77 c28 43 92 121 144 175 l93 98
-516 0 -516 0 0 -175z"/>
<path d="M3476 2578 c49 -51 114 -130 144 -175 l55 -82 178 -1 177 0 0 175 0
175 -321 0 -322 0 89 -92z"/>
<path d="M590 2065 l0 -175 293 0 292 0 24 92 c19 76 45 149 88 246 4 9 -69
12 -346 12 l-351 0 0 -175z"/>
<path d="M3725 2223 c36 -82 77 -201 91 -260 l18 -73 163 0 163 0 0 175 0 175
-221 0 c-207 0 -221 -1 -214 -17z"/>
<path d="M590 1635 l0 -175 283 0 282 0 0 175 0 175 -282 0 -283 0 0 -175z"/>
<path d="M3855 1635 l0 -175 183 0 182 0 0 175 0 175 -182 0 -183 0 0 -175z"/>
<path d="M590 1205 l0 -175 1720 0 1720 0 0 175 0 175 -1720 0 -1720 0 0 -175z"/>
<path d="M590 775 l0 -175 1235 0 1235 0 0 175 0 175 -1235 0 -1235 0 0 -175z"/>
</g>
</svg>
